<?xml version="1.0" encoding="UTF-8" standalone="no"?>
<svg width="200px" height="200px"
 xmlns="http://www.w3.org/2000/svg" xmlns:xlink="http://www.w3.org/1999/xlink"  version="1.2" baseProfile="tiny">
<desc>Created by EvoPdf</desc>
<defs>
</defs>
<g fill="none" stroke="black" stroke-width="1" fill-rule="evenodd" stroke-linecap="square" stroke-linejoin="bevel" >

<g fill="#000000" fill-opacity="1" stroke="#000000" stroke-opacity="1" stroke-width="1" stroke-linecap="square" stroke-linejoin="miter" stroke-miterlimit="2" transform="matrix(1,0,0,1,0,0)"
>
</g>

<g fill="#000000" fill-opacity="1" stroke="#000000" stroke-opacity="1" stroke-width="1" stroke-linecap="square" stroke-linejoin="miter" stroke-miterlimit="2" transform="matrix(1,0,0,1,0,0)"
>
</g>

<g fill="#000000" fill-opacity="1" stroke="#000000" stroke-opacity="1" stroke-width="1" stroke-linecap="square" stroke-linejoin="miter" stroke-miterlimit="2" transform="matrix(1,0,0,1,0,0)"
>
</g>

<g fill="#000000" fill-opacity="1" stroke="#000000" stroke-opacity="1" stroke-width="1" stroke-linecap="square" stroke-linejoin="miter" stroke-miterlimit="2" transform="matrix(1,0,0,1,0,0)"
>
</g>

<g fill="#000000" fill-opacity="1" stroke="#000000" stroke-opacity="1" stroke-width="1" stroke-linecap="square" stroke-linejoin="miter" stroke-miterlimit="2" transform="matrix(0.0390625,0,0,0.0390625,8,8)"
>
</g>

<g fill="#030303" fill-opacity="1" stroke="none" transform="matrix(0.0390625,0,0,0.0390625,8,8)"
>
<path vector-effect="none" fill-rule="nonzero" d="M487.4,315.7 L444.8,291.1 C449.1,267.9 449.1,244.1 444.8,220.9 L487.4,196.3 C492.3,193.5 494.5,187.7 492.9,182.3 C481.8,146.7 462.9,114.5 438.2,87.7 C434.4,83.6 428.2,82.6 423.4,85.4 L380.8,110 C362.9,94.6 342.3,82.7 320,74.9 L320,25.8 C320,20.2 316.1,15.3 310.6,14.1 C273.9,5.9 236.3,6.3 201.4,14.1 C195.9,15.3 192,20.2 192,25.8 L192,75 C169.8,82.9 149.2,94.8 131.2,110.1 L88.7,85.5 C83.8,82.7 77.7,83.6 73.9,87.8 C49.2,114.5 30.3,146.7 19.2,182.4 C17.5,187.8 19.8,193.6 24.7,196.4 L67.3,221 C63,244.2 63,268 67.3,291.2 L24.7,315.8 C19.8,318.6 17.6,324.4 19.2,329.8 C30.3,365.4 49.2,397.6 73.9,424.4 C77.7,428.5 83.9,429.5 88.7,426.7 L131.3,402.1 C149.2,417.5 169.8,429.4 192.1,437.2 L192.1,486.4 C192.1,492 196,496.9 201.5,498.1 C238.2,506.3 275.8,505.9 310.7,498.1 C316.2,496.9 320.1,492 320.1,486.4 L320.1,437.2 C342.3,429.3 362.9,417.4 380.9,402.1 L423.5,426.7 C428.4,429.5 434.5,428.6 438.3,424.4 C463,397.7 481.9,365.5 493,329.8 C494.5,324.3 492.3,318.5 487.4,315.7 M256,336 C211.9,336 176,300.1 176,256 C176,211.9 211.9,176 256,176 C300.1,176 336,211.9 336,256 C336,300.1 300.1,336 256,336 "/>
</g>

<g fill="#000000" fill-opacity="1" stroke="#000000" stroke-opacity="1" stroke-width="1" stroke-linecap="square" stroke-linejoin="miter" stroke-miterlimit="2" transform="matrix(0.0390625,0,0,0.0390625,8,8)"
>
</g>

<g fill="#000000" fill-opacity="1" stroke="#000000" stroke-opacity="1" stroke-width="1" stroke-linecap="square" stroke-linejoin="miter" stroke-miterlimit="2" transform="matrix(0.0390625,0,0,0.0390625,8,8)"
>
</g>

<g fill="#000000" fill-opacity="1" stroke="#000000" stroke-opacity="1" stroke-width="1" stroke-linecap="square" stroke-linejoin="miter" stroke-miterlimit="2" transform="matrix(1,0,0,1,0,0)"
>
</g>

<g fill="#000000" fill-opacity="1" stroke="#000000" stroke-opacity="1" stroke-width="1" stroke-linecap="square" stroke-linejoin="miter" stroke-miterlimit="2" transform="matrix(1,0,0,1,0,0)"
>
</g>

<g fill="#000000" fill-opacity="1" stroke="#000000" stroke-opacity="1" stroke-width="1" stroke-linecap="square" stroke-linejoin="miter" stroke-miterlimit="2" transform="matrix(1,0,0,1,0,0)"
>
</g>

<g fill="#000000" fill-opacity="1" stroke="#000000" stroke-opacity="1" stroke-width="1" stroke-linecap="square" stroke-linejoin="miter" stroke-miterlimit="2" transform="matrix(1,0,0,1,0,0)"
>
</g>

<g fill="#000000" fill-opacity="1" stroke="#000000" stroke-opacity="1" stroke-width="1" stroke-linecap="square" stroke-linejoin="miter" stroke-miterlimit="2" transform="matrix(0.0390625,0,0,0.0390625,8,8)"
>
</g>

<g fill="#000000" fill-opacity="1" stroke="#000000" stroke-opacity="1" stroke-width="1" stroke-linecap="square" stroke-linejoin="miter" stroke-miterlimit="2" transform="matrix(1,0,0,1,0,0)"
>
</g>

<g fill="#000000" fill-opacity="1" stroke="#000000" stroke-opacity="1" stroke-width="1" stroke-linecap="square" stroke-linejoin="miter" stroke-miterlimit="2" transform="matrix(1,0,0,1,0,0)"
>
</g>

<g fill="#000000" fill-opacity="1" stroke="#000000" stroke-opacity="1" stroke-width="1" stroke-linecap="square" stroke-linejoin="miter" stroke-miterlimit="2" transform="matrix(1,0,0,1,0,0)"
>
</g>

<g fill="#000000" fill-opacity="1" stroke="#000000" stroke-opacity="1" stroke-width="1" stroke-linecap="square" stroke-linejoin="miter" stroke-miterlimit="2" transform="matrix(1,0,0,1,0,0)"
>
</g>

<g fill="#000000" fill-opacity="1" stroke="#000000" stroke-opacity="1" stroke-width="1" stroke-linecap="square" stroke-linejoin="miter" stroke-miterlimit="2" transform="matrix(1,0,0,1,0,0)"
>
</g>

<g fill="#000000" fill-opacity="1" stroke="#000000" stroke-opacity="1" stroke-width="1" stroke-linecap="square" stroke-linejoin="miter" stroke-miterlimit="2" transform="matrix(1,0,0,1,0,0)"
>
</g>
</g>
</svg>
